<?xml version="1.0" standalone="no"?>
<!DOCTYPE svg PUBLIC "-//W3C//DTD SVG 20010904//EN"
 "http://www.w3.org/TR/2001/REC-SVG-20010904/DTD/svg10.dtd">
<svg version="1.0" xmlns="http://www.w3.org/2000/svg"
 width="230.000000pt" height="220.000000pt" viewBox="0 0 230.000000 220.000000"
 preserveAspectRatio="xMidYMid meet">

<g transform="translate(0.000000,220.000000) scale(0.100000,-0.100000)"
fill="#000000" stroke="none">
<path d="M560 2129 c0 -5 -4 -8 -9 -4 -19 11 -20 -13 -2 -29 17 -15 19 -15 37
6 16 19 16 20 1 9 -9 -8 -21 -11 -25 -7 -4 4 2 14 12 22 17 12 18 14 3 14 -9
0 -17 -5 -17 -11z"/>
<path d="M276 2105 c-17 -13 -18 -19 -7 -56 7 -23 23 -52 37 -66 22 -22 26
-23 52 -9 54 28 80 98 47 126 -12 10 -19 9 -38 -3 -21 -14 -24 -14 -35 4 -14
23 -30 24 -56 4z m38 -11 c9 -3 16 -12 16 -20 0 -19 24 -18 40 1 9 11 17 12
23 6 19 -19 -35 -101 -67 -101 -11 0 -43 84 -39 101 6 21 6 21 27 13z"/>
<path d="M1072 2090 c-37 -15 -59 -43 -66 -83 -6 -31 -4 -42 11 -52 45 -34
135 -26 180 17 45 42 17 108 -52 123 l-30 7 30 -27 c16 -14 31 -21 33 -16 2 6
8 8 14 5 6 -4 5 -9 -3 -14 -10 -7 -10 -11 0 -24 9 -11 10 -16 2 -16 -6 0 -11
5 -11 10 0 6 -5 10 -11 10 -7 0 -9 -9 -6 -21 3 -12 0 -22 -8 -25 -8 -3 -11
-12 -8 -20 6 -17 -9 -18 -25 -2 -9 9 -12 9 -12 0 0 -7 -5 -12 -11 -12 -6 0 -8
8 -5 18 6 16 5 16 -8 0 -18 -24 -23 -23 -31 9 -3 15 -14 32 -23 39 -15 11 -14
15 11 38 15 14 34 26 42 26 8 0 17 5 20 10 7 12 -2 12 -33 0z m-32 -101 c0 -6
-4 -7 -10 -4 -5 3 -10 11 -10 16 0 6 5 7 10 4 6 -3 10 -11 10 -16z m0 -29 c0
-5 -2 -10 -4 -10 -3 0 -8 5 -11 10 -3 6 -1 10 4 10 6 0 11 -4 11 -10z"/>
<path d="M1944 2090 c-36 -8 -54 -18 -54 -30 0 -5 13 -7 29 -4 16 4 32 1 35
-5 5 -7 14 -6 29 4 20 13 26 12 55 -5 31 -19 32 -19 32 -1 0 29 -72 52 -126
41z"/>
<path d="M180 2075 c-16 -19 -3 -55 20 -55 21 0 35 16 21 24 -5 3 -7 15 -4 26
6 24 -18 28 -37 5z"/>
<path d="M467 2044 c7 -19 47 -36 69 -27 11 4 15 1 12 -13 -3 -19 1 -20 59
-12 7 1 12 4 11 7 -2 21 5 29 27 33 27 6 32 -1 13 -20 -9 -9 -7 -12 10 -12 18
0 42 30 42 53 0 1 -33 0 -72 -2 -40 -2 -84 -4 -98 -4 -14 -1 -37 2 -52 6 -23
6 -26 4 -21 -9z"/>
<path d="M1283 2038 c-17 -19 -17 -21 6 -39 32 -26 53 -21 57 13 4 43 -33 59
-63 26z m9 -20 c-7 -7 -12 -8 -12 -2 0 6 3 14 7 17 3 4 9 5 12 2 2 -3 -1 -11
-7 -17z"/>
<path d="M786 2025 c-4 -14 -11 -25 -16 -25 -5 0 -7 8 -3 18 3 9 3 14 -2 10
-13 -12 -15 -87 -3 -94 8 -5 9 -2 5 9 -3 10 -2 17 3 17 5 0 12 9 15 20 4 11
11 18 16 15 5 -4 9 -1 9 6 0 7 2 10 5 7 10 -10 -18 -58 -29 -51 -6 4 -3 -3 7
-14 9 -11 17 -22 17 -26 0 -3 -8 -4 -17 -1 -15 5 -16 4 -3 -5 8 -6 24 -11 35
-11 17 0 17 2 5 10 -13 8 -12 10 3 10 9 0 17 -7 17 -15 0 -23 38 -18 65 10 32
31 32 71 0 101 -30 28 -68 41 -73 25 -2 -6 -8 -11 -13 -11 -6 0 -7 5 -4 10 3
6 -3 10 -13 10 -13 0 -22 -9 -26 -25z m128 -21 c8 -21 -7 -17 -21 6 -11 16
-10 18 1 14 8 -3 17 -12 20 -20z m-27 -26 c-3 -8 -6 -5 -6 6 -1 11 2 17 5 13
3 -3 4 -12 1 -19z m-47 -18 c-6 -4 -11 -10 -11 -14 1 -3 -1 -6 -4 -6 -6 0 -5
9 2 27 3 7 10 10 15 7 6 -4 6 -9 -2 -14z m90 4 c0 -17 -22 -14 -28 4 -2 7 3
12 12 12 9 0 16 -7 16 -16z m-40 -14 c0 -5 -2 -10 -4 -10 -3 0 -8 5 -11 10 -3
6 -1 10 4 10 6 0 11 -4 11 -10z m4 -41 c-9 -15 -34 -10 -28 5 3 8 12 12 20 9
8 -3 11 -9 8 -14z"/>
<path d="M2020 2020 c0 -5 5 -10 10 -10 6 0 10 5 10 10 0 6 -4 10 -10 10 -5 0
-10 -4 -10 -10z"/>
<path d="M224 1991 c0 -11 4 -17 8 -15 11 7 10 -8 -1 -25 -5 -8 -18 -12 -30
-8 -12 3 -19 1 -15 -4 11 -18 45 -9 56 16 9 21 9 29 -3 40 -13 13 -15 13 -15
-4z"/>
<path d="M1738 1993 c7 -3 16 -2 19 1 4 3 -2 6 -13 5 -11 0 -14 -3 -6 -6z"/>
<path d="M2043 1978 c-10 -13 -37 -40 -61 -60 -23 -21 -36 -38 -30 -38 19 1
132 120 114 120 -2 0 -13 -10 -23 -22z"/>
<path d="M1650 1980 c0 -17 74 -60 105 -60 31 0 104 54 92 67 -4 3 -15 -1 -24
-9 -25 -22 -92 -30 -125 -15 -16 6 -28 15 -28 19 0 5 -4 8 -10 8 -5 0 -10 -4
-10 -10z"/>
<path d="M1966 1983 c-11 -11 -6 -23 9 -23 8 0 15 4 15 9 0 13 -16 22 -24 14z"/>
<path d="M1506 1965 c-3 -9 -11 -13 -17 -9 -8 5 -9 3 -4 -5 6 -10 11 -9 23 3
9 8 13 18 10 21 -3 3 -8 -1 -12 -10z"/>
<path d="M1925 1960 c-3 -5 1 -10 10 -10 9 0 13 5 10 10 -3 6 -8 10 -10 10 -2
0 -7 -4 -10 -10z"/>
<path d="M1575 1950 c3 -5 8 -10 11 -10 2 0 4 5 4 10 0 6 -5 10 -11 10 -5 0
-7 -4 -4 -10z"/>
<path d="M143 1944 c20 -6 23 -40 5 -47 -8 -3 -5 -6 5 -6 27 -1 19 53 -8 56
-16 1 -16 1 -2 -3z"/>
<path d="M1524 1939 c-4 -7 -3 -9 4 -5 5 3 13 0 15 -6 4 -9 6 -10 6 -1 1 17
-16 25 -25 12z"/>
<path d="M305 1918 c-38 -10 -73 -22 -77 -26 -4 -4 -8 -24 -10 -46 -6 -95 118
-102 147 -8 3 12 10 22 15 22 4 0 17 16 29 36 12 19 17 33 12 29 -5 -3 -12 -1
-16 5 -8 13 -15 12 -100 -12z m-40 -126 c-3 -3 -11 0 -18 7 -9 10 -8 11 6 5
10 -3 15 -9 12 -12z"/>
<path d="M660 1916 c0 -16 27 -29 41 -20 5 3 9 10 9 16 0 7 -6 6 -15 -2 -12
-10 -15 -10 -15 4 0 9 -4 16 -10 16 -5 0 -10 -6 -10 -14z"/>
<path d="M1273 1916 c20 -15 12 -25 -15 -21 -26 5 -22 -14 6 -26 31 -14 66 4
66 33 0 12 -3 19 -6 16 -3 -4 -20 -2 -37 3 -28 7 -30 7 -14 -5z m32 -33 c-23
-16 -32 -16 -41 -1 -4 6 -3 8 4 4 6 -3 17 0 24 8 7 8 17 11 22 8 5 -3 1 -11
-9 -19z"/>
<path d="M626 1911 c-3 -5 1 -11 9 -15 8 -3 15 -1 15 4 0 13 -18 22 -24 11z"/>
<path d="M1380 1893 c-11 -14 -20 -29 -20 -34 0 -4 -3 -14 -6 -23 -5 -13 2
-16 42 -14 l49 1 -45 7 -45 7 45 2 c81 4 159 3 169 -3 5 -3 11 10 13 29 4 38
-1 41 -64 36 -16 -1 -28 1 -28 6 0 4 -20 9 -45 10 -37 1 -48 -3 -65 -24z"/>
<path d="M613 1874 c0 -7 9 -14 19 -14 10 0 18 2 18 5 0 2 -8 9 -18 14 -14 8
-19 6 -19 -5z"/>
<path d="M710 1880 c0 -5 -7 -7 -15 -4 -8 4 -15 1 -15 -5 0 -6 9 -11 20 -11
11 0 20 7 20 15 0 8 -2 15 -5 15 -3 0 -5 -4 -5 -10z"/>
<path d="M1630 1809 c-13 -41 -30 -84 -38 -96 -23 -36 -11 -55 47 -75 63 -21
63 -21 87 62 9 30 20 60 24 65 5 6 11 27 15 47 7 35 5 38 -21 49 -16 6 -43 13
-60 16 -31 5 -31 4 -54 -68z m64 -95 c28 -5 29 -10 1 -22 -21 -10 -27 -9 -32
4 -3 9 -15 20 -27 25 -17 8 -15 8 9 3 17 -3 38 -8 49 -10z"/>
<path d="M2124 1869 c-8 -14 13 -18 30 -6 16 12 16 13 -4 13 -12 0 -23 -4 -26
-7z"/>
<path d="M2070 1829 c0 -61 57 -89 108 -53 16 11 22 25 22 51 0 35 -1 36 -19
19 -23 -21 -88 -17 -102 6 -6 8 -9 1 -9 -23z"/>
<path d="M676 1843 c-11 -12 -6 -19 14 -19 11 0 20 3 20 7 0 10 -27 19 -34 12z"/>
<path d="M1265 1830 c3 -5 8 -10 11 -10 2 0 4 5 4 10 0 6 -5 10 -11 10 -5 0
-7 -4 -4 -10z"/>
<path d="M660 1802 c0 -5 7 -13 16 -16 10 -4 14 -1 12 6 -5 15 -28 23 -28 10z"/>
<path d="M1463 1803 c-57 -2 -103 -7 -103 -11 0 -4 46 -6 101 -4 73 3 99 1 94
-7 -3 -6 -12 -11 -18 -10 -7 1 -51 1 -99 0 -116 -1 -118 -20 -7 -50 45 -12 82
-21 83 -19 1 2 16 24 34 50 32 47 38 60 25 56 -5 -1 -54 -4 -110 -5z"/>
<path d="M134 1781 c10 -11 24 -17 32 -14 11 4 8 9 -12 19 -36 19 -40 18 -20
-5z"/>
<path d="M825 1780 c-4 -6 -10 -8 -15 -5 -5 3 -11 1 -15 -5 -4 -6 -11 -8 -16
-4 -16 10 -56 -4 -63 -22 -4 -11 -2 -15 8 -11 25 10 26 -20 1 -33 l-23 -12 21
-25 c21 -23 21 -23 29 -3 4 11 15 20 25 20 17 1 17 1 0 14 -19 15 -14 41 8 50
17 6 30 -10 15 -19 -15 -9 -12 -25 4 -25 8 0 18 -9 21 -20 8 -24 25 -17 25 11
0 10 6 19 13 19 6 1 2 9 -11 20 -19 16 -21 23 -12 40 11 20 -3 30 -15 10z"/>
<path d="M645 1761 c-3 -5 2 -11 10 -15 8 -3 17 -1 20 3 3 5 -2 11 -10 15 -8
3 -17 1 -20 -3z"/>
<path d="M632 1728 c5 -15 28 -23 28 -10 0 5 -7 13 -16 16 -10 4 -14 1 -12 -6z"/>
<path d="M232 1718 c-7 -7 -12 -17 -12 -23 0 -6 -13 -21 -30 -33 -19 -14 -30
-32 -30 -47 0 -16 -12 -33 -35 -51 -45 -34 -50 -77 -7 -72 15 2 26 8 25 15 -1
6 14 23 33 38 28 22 34 32 30 50 -5 18 1 28 24 45 16 12 30 28 30 37 0 9 8 22
17 29 10 7 15 16 11 20 -10 10 -38 -15 -39 -35 0 -11 -2 -12 -6 -3 -3 7 1 19
7 27 15 18 -1 20 -18 3z m-30 -70 c-7 -7 -12 -21 -12 -32 0 -12 -5 -28 -10
-36 -7 -11 -8 -5 -4 20 7 34 20 60 32 60 3 0 1 -5 -6 -12z m-79 -128 c-3 -12
-8 -19 -11 -16 -5 6 5 36 12 36 2 0 2 -9 -1 -20z"/>
<path d="M991 1712 c-7 -13 -6 -23 1 -30 28 -28 63 3 38 33 -16 20 -27 19 -39
-3z"/>
<path d="M1998 1698 c-21 -21 -10 -24 17 -5 10 8 14 16 9 19 -5 3 -17 -3 -26
-14z"/>
<path d="M620 1696 c0 -9 5 -16 10 -16 6 0 10 4 10 9 0 6 -4 13 -10 16 -5 3
-10 -1 -10 -9z"/>
<path d="M1062 1697 c-10 -11 -9 -17 3 -27 24 -20 45 4 24 26 -14 13 -17 13
-27 1z"/>
<path d="M2116 1671 c-4 -5 3 -7 14 -4 23 6 26 13 6 13 -8 0 -17 -4 -20 -9z"/>
<path d="M1419 1654 c-11 -14 -10 -18 6 -30 10 -8 31 -14 46 -14 32 0 75 32
65 48 -11 18 -101 15 -117 -4z"/>
<path d="M983 1643 c9 -2 23 -2 30 0 6 3 -1 5 -18 5 -16 0 -22 -2 -12 -5z"/>
<path d="M1085 1640 l-60 -7 55 -1 c30 -1 62 3 70 8 8 5 11 9 5 8 -5 -1 -37
-4 -70 -8z"/>
<path d="M795 1611 c-5 -26 -10 -29 -36 -24 -16 2 -29 0 -29 -6 0 -18 12 -41
22 -41 6 0 5 6 -2 15 -11 13 -8 15 14 15 18 0 26 -5 26 -17 0 -14 -2 -15 -9
-4 -6 9 -8 4 -8 -15 0 -16 2 -23 5 -15 4 11 6 11 13 0 6 -10 9 -4 9 17 0 24 5
33 21 37 15 4 19 2 15 -10 -3 -8 -6 -22 -7 -31 -1 -11 -4 -8 -10 8 -8 24 -8
24 -6 -5 2 -36 -29 -48 -51 -19 -13 18 -14 18 -10 -1 2 -15 11 -20 38 -20 31
0 36 4 46 35 6 19 14 53 18 75 l6 40 -15 -30 c-11 -23 -13 -24 -9 -6 4 16 3
21 -5 17 -6 -4 -11 -13 -11 -21 0 -8 -5 -17 -11 -21 -8 -4 -9 3 -4 25 4 17 4
31 2 31 -3 0 -8 -13 -12 -29z"/>
<path d="M1217 1580 c7 -68 24 -90 73 -90 48 0 57 12 65 85 l7 60 -75 0 -75 0
5 -55z m94 -11 c-23 -4 -53 -11 -65 -14 -18 -5 -17 -4 4 9 14 9 43 15 65 15
l40 -1 -44 -9z"/>
<path d="M1946 1621 c-4 -6 -2 -11 4 -11 6 0 8 -5 5 -10 -4 -7 -13 -6 -26 1
-12 6 -23 8 -26 6 -2 -3 5 -8 18 -12 16 -5 18 -9 8 -15 -7 -5 -21 -4 -30 1
-11 6 -20 5 -24 -1 -3 -5 3 -10 15 -10 20 0 19 -2 -7 -25 -15 -13 -23 -25 -17
-25 7 0 14 7 18 15 4 10 18 15 48 14 30 -2 35 -3 16 -6 -35 -5 -36 -18 -3 -19
14 -1 25 2 25 7 0 5 7 9 15 9 9 0 12 -6 8 -17 -4 -13 -3 -15 6 -7 8 8 8 18 0
43 -10 29 -13 31 -28 17 -10 -9 -26 -16 -37 -15 -17 0 -17 1 3 11 12 6 24 17
28 26 7 19 -10 39 -19 23z m44 -61 c0 -5 -5 -10 -11 -10 -5 0 -7 5 -4 10 3 6
8 10 11 10 2 0 4 -4 4 -10z"/>
<path d="M296 1604 c-4 -9 -4 -19 -1 -22 7 -8 35 19 29 29 -8 14 -21 11 -28
-7z"/>
<path d="M940 1598 c0 -10 6 -18 13 -18 6 -1 44 -5 84 -9 86 -10 123 -5 123
18 0 13 -9 15 -52 13 -29 -2 -79 1 -110 6 -53 8 -58 7 -58 -10z"/>
<path d="M1505 1604 c-17 -8 -45 -12 -65 -9 -33 5 -34 5 -16 -10 11 -8 28 -15
38 -15 22 0 88 31 88 42 0 11 -9 9 -45 -8z"/>
<path d="M548 1582 c-19 -4 -25 -32 -8 -32 5 0 7 -7 4 -15 -4 -8 -1 -22 6 -30
10 -12 10 -15 -3 -15 -25 0 -40 -25 -22 -40 21 -17 45 -5 45 23 0 13 5 28 12
35 8 8 8 15 -1 25 -9 12 -7 15 14 15 16 0 35 -12 50 -29 26 -32 37 -35 54 -16
8 11 7 18 -7 30 -29 26 -115 56 -144 49z"/>
<path d="M1670 1581 c-18 -5 -25 -14 -25 -31 0 -22 5 -25 35 -26 19 -1 43 -5
53 -9 10 -4 17 -3 17 4 0 6 7 11 16 11 23 0 11 24 -14 28 -11 2 -26 10 -32 18
-13 15 -13 15 -50 5z"/>
<path d="M374 1562 c4 -7 2 -20 -5 -28 -12 -14 -14 -14 -27 3 -13 17 -14 17
-8 -4 6 -19 3 -21 -24 -19 -16 1 -30 -1 -30 -6 0 -4 -9 1 -20 12 -11 11 -26
20 -32 19 -7 0 -3 -5 9 -11 12 -6 24 -19 26 -30 4 -14 10 -17 19 -12 7 5 31
14 52 19 46 12 68 38 47 57 -11 11 -13 11 -7 0z"/>
<path d="M1850 1549 c0 -5 5 -7 10 -4 6 3 10 8 10 11 0 2 -4 4 -10 4 -5 0 -10
-5 -10 -11z"/>
<path d="M1416 1514 c-11 -7 -15 -18 -10 -25 4 -7 3 -10 -3 -6 -6 4 -16 1 -22
-7 -9 -11 -6 -21 16 -46 25 -30 30 -32 76 -27 34 3 55 11 64 23 16 23 13 60
-5 56 -8 -1 -11 2 -8 7 14 22 -82 44 -108 25z m59 -42 c-3 -3 -11 0 -18 7 -9
10 -8 11 6 5 10 -3 15 -9 12 -12z m-57 -16 c-10 -7 -14 -17 -10 -21 4 -5 1 -5
-7 0 -12 7 -11 10 4 22 24 17 36 17 13 -1z m107 -15 c-6 -5 -25 10 -25 20 0 5
6 4 14 -3 8 -7 12 -15 11 -17z"/>
<path d="M1890 1515 c0 -8 2 -15 4 -15 2 0 6 7 10 15 3 8 1 15 -4 15 -6 0 -10
-7 -10 -15z"/>
<path d="M2095 1511 c-3 -5 -2 -29 1 -53 4 -24 4 -40 1 -37 -6 4 -14 37 -16
62 -1 5 -6 5 -11 2 -13 -8 -7 -234 7 -259 7 -12 13 -15 17 -7 4 6 2 11 -3 11
-17 0 -13 38 7 67 13 21 14 25 2 18 -13 -8 -13 -7 -1 8 18 22 35 22 27 0 -4
-10 -4 -15 -1 -11 11 11 44 -24 37 -40 -3 -10 -1 -13 6 -8 7 4 12 4 12 -1 -1
-18 -17 -31 -45 -36 -28 -4 -27 -4 7 -6 20 0 39 3 42 7 2 4 1 52 -2 106 -8 96
-18 121 -47 109 -13 -4 -30 42 -20 57 3 5 1 11 -4 14 -5 4 -12 2 -16 -3z"/>
<path d="M625 1499 c-4 -6 -5 -12 -2 -15 2 -3 7 2 10 11 7 17 1 20 -8 4z"/>
<path d="M1923 1503 c9 -2 25 -2 35 0 9 3 1 5 -18 5 -19 0 -27 -2 -17 -5z"/>
<path d="M1860 1488 c0 -9 14 -21 31 -28 36 -15 100 -3 107 20 4 12 2 13 -9 3
-19 -19 -89 -16 -111 4 -16 14 -18 14 -18 1z"/>
<path d="M1092 1458 c-21 -21 -13 -64 18 -103 31 -38 37 -50 21 -41 -4 3 -13
-6 -19 -19 -15 -33 9 -35 30 -4 8 12 27 23 43 25 17 2 24 0 18 -4 -13 -8 -6
-52 8 -52 5 0 8 3 8 8 -4 24 5 39 34 53 39 19 55 58 39 94 -13 28 -43 32 -82
11 -23 -13 -26 -12 -42 15 -19 31 -54 39 -76 17z m65 -48 c12 -22 18 -38 13
-35 -5 3 -11 1 -15 -5 -10 -16 -20 -12 -38 19 -17 30 -14 61 7 61 6 0 21 -18
33 -40z m117 -30 c-3 -8 -7 -20 -7 -27 0 -7 -4 -10 -8 -7 -4 2 -10 0 -14 -6
-11 -18 -33 -10 -39 15 -7 28 10 62 34 68 20 5 42 -23 34 -43z"/>
<path d="M305 1440 c-28 -7 -28 -8 -5 -9 14 0 32 4 40 9 17 11 8 11 -35 0z"/>
<path d="M1683 1433 c15 -2 39 -2 55 0 15 2 2 4 -28 4 -30 0 -43 -2 -27 -4z"/>
<path d="M193 1374 c0 -23 1 -24 9 -10 7 12 7 21 0 28 -6 6 -9 0 -9 -18z"/>
<path d="M644 1393 c16 -4 17 -7 5 -14 -9 -7 0 -7 26 -3 45 8 58 14 28 14 -11
0 -33 2 -49 4 -16 2 -20 1 -10 -1z"/>
<path d="M1870 1383 c-27 -5 -70 -40 -70 -57 0 -6 10 1 21 17 39 51 101 21 98
-48 l-2 -30 -4 30 c-4 27 -36 65 -54 65 -4 0 -14 -9 -22 -21 -27 -38 5 -87 38
-59 12 10 13 16 4 26 -6 8 -16 14 -21 14 -6 0 -4 -7 3 -17 12 -14 12 -16 -1
-11 -24 8 -25 38 -1 38 26 0 41 -28 30 -57 -8 -21 -49 -34 -49 -15 0 4 -10 18
-21 32 l-21 25 19 -35 c15 -27 26 -36 50 -38 26 -3 32 -8 35 -29 3 -29 37 -56
55 -45 8 5 8 12 -3 26 -11 16 -16 17 -29 6 -13 -11 -15 -8 -15 16 0 21 3 25 9
15 7 -11 10 -9 16 8 3 11 11 21 16 21 5 0 9 15 9 33 0 36 -33 98 -52 96 -7 -1
-24 -4 -38 -6z m65 -33 c19 -37 19 -74 0 -90 -14 -11 -14 -10 -6 13 11 29 -1
86 -21 99 -10 6 -10 8 -1 8 7 0 19 -13 28 -30z m5 -160 c0 -5 -5 -10 -11 -10
-5 0 -7 5 -4 10 3 6 8 10 11 10 2 0 4 -4 4 -10z"/>
<path d="M741 1363 c7 -12 15 -20 18 -17 3 2 -3 12 -13 22 -17 16 -18 16 -5
-5z"/>
<path d="M1010 1362 c0 -16 -56 -43 -99 -47 -28 -3 -42 2 -63 23 -19 17 -28
21 -28 11 0 -19 11 -33 30 -38 40 -12 100 -12 121 0 13 7 27 12 31 11 9 -2 21
38 14 45 -3 4 -6 1 -6 -5z"/>
<path d="M360 1345 c-6 -8 -8 -20 -4 -26 4 -8 3 -9 -4 -5 -15 9 -15 3 -1 -28
7 -14 16 -23 20 -20 5 3 9 1 9 -5 0 -10 36 -2 83 19 32 16 33 20 6 54 -16 20
-29 26 -59 26 -21 0 -43 -6 -50 -15z m85 -6 c6 -8 -8 -13 -27 -10 -5 0 -8 -3
-8 -9 0 -5 5 -10 12 -10 6 0 9 -3 5 -6 -3 -4 -19 4 -34 16 -26 21 -27 22 -4
15 13 -4 21 -3 18 2 -3 5 3 9 13 10 11 1 22 -2 25 -8z m20 -29 c3 -6 -1 -7 -9
-4 -18 7 -21 14 -7 14 6 0 13 -4 16 -10z"/>
<path d="M668 1343 c6 -2 18 -2 25 0 6 3 1 5 -13 5 -14 0 -19 -2 -12 -5z"/>
<path d="M1376 1315 c4 -15 2 -25 -5 -25 -6 0 -11 5 -11 12 0 6 -9 3 -20 -7
-22 -19 -27 -47 -9 -42 6 1 12 -11 14 -28 1 -16 5 -52 9 -80 5 -44 4 -42 -9
14 -14 65 -26 90 -24 55 2 -44 25 -118 38 -122 19 -6 7 145 -14 168 -8 9 -12
20 -8 23 10 10 25 8 19 -2 -3 -5 2 -15 12 -22 15 -12 16 -12 4 2 -10 14 -10
18 3 23 8 3 15 2 15 -3 0 -4 10 -13 23 -20 21 -11 22 -16 17 -91 -3 -43 -8
-81 -11 -84 -3 -3 -3 32 -1 79 4 68 2 85 -9 85 -29 0 -34 -16 -31 -91 3 -73 4
-76 33 -86 33 -13 39 -8 35 30 -2 17 1 24 8 20 8 -5 8 -3 1 8 -9 13 -11 41 -7
118 3 59 13 27 16 -55 2 -49 -1 -84 -8 -93 -9 -11 -8 -13 4 -9 12 4 15 22 13
84 -1 62 0 70 6 39 8 -38 8 -37 8 18 0 33 -3 53 -7 47 -6 -9 -9 -9 -15 0 -4 7
-1 16 6 21 11 7 10 9 -3 9 -10 0 -18 -7 -18 -15 0 -9 -6 -12 -16 -8 -13 5 -13
7 -2 14 10 7 10 9 -2 10 -8 0 -4 5 10 9 24 8 24 8 2 9 -29 1 -41 -28 -18 -44
9 -7 13 -16 8 -19 -10 -6 -36 20 -45 46 -3 9 -1 19 6 22 7 2 4 5 -6 5 -14 1
-16 -4 -11 -24z m21 -122 c-3 -10 -5 -4 -5 12 0 17 2 24 5 18 2 -7 2 -21 0
-30z m0 -90 c-3 -10 -5 -2 -5 17 0 19 2 27 5 18 2 -10 2 -26 0 -35z"/>
<path d="M191 1306 c-26 -19 -38 -23 -61 -16 -34 10 -33 4 12 -77 l29 -51 37
10 c56 15 62 28 45 98 -9 33 -19 60 -22 60 -4 0 -22 -11 -40 -24z"/>
<path d="M571 1313 c-1 -24 15 -40 21 -22 3 9 10 9 27 0 12 -7 29 -10 36 -7 8
3 17 1 20 -4 4 -6 11 -10 18 -10 23 0 -11 22 -39 25 -59 7 -69 10 -76 25 -5
11 -7 9 -7 -7z"/>
<path d="M756 1315 c-9 -26 -7 -32 5 -12 6 10 9 21 6 23 -2 3 -7 -2 -11 -11z"/>
<path d="M1329 1313 c-13 -16 -12 -17 4 -4 9 7 17 15 17 17 0 8 -8 3 -21 -13z"/>
<path d="M714 1285 c8 -8 18 -15 22 -15 3 0 1 7 -6 15 -7 8 -17 15 -22 15 -5
0 -3 -7 6 -15z"/>
<path d="M1247 1259 c-20 -49 -29 -89 -19 -89 10 0 46 109 38 117 -2 3 -11
-10 -19 -28z"/>
<path d="M480 1266 c0 -10 -4 -14 -10 -11 -5 3 -10 -2 -10 -11 0 -14 -3 -15
-12 -6 -14 14 -42 17 -34 3 3 -4 -5 -6 -18 -4 -17 4 -25 0 -29 -14 -4 -16 -5
-16 -6 0 0 9 -5 17 -11 17 -18 0 -10 -26 15 -50 20 -19 32 -22 65 -17 49 6 45
4 64 49 14 32 14 37 1 48 -12 10 -15 9 -15 -4z"/>
<path d="M960 1200 c8 -5 20 -10 25 -10 6 0 3 5 -5 10 -8 5 -19 10 -25 10 -5
0 -3 -5 5 -10z"/>
<path d="M995 1157 c-4 -13 -18 -31 -33 -40 -17 -10 -21 -17 -12 -17 10 -1 9
-4 -5 -11 -16 -8 -15 -8 8 -4 20 4 27 2 22 -6 -5 -7 -22 -9 -49 -5 -29 4 -37
3 -26 -4 31 -20 101 -5 86 19 -4 6 -3 11 3 11 5 0 12 -5 14 -10 3 -6 4 -5 3 2
-2 7 -14 12 -27 11 l-24 -3 21 18 c20 16 42 62 30 62 -3 0 -8 -10 -11 -23z"/>
<path d="M1710 1165 c0 -9 5 -15 11 -13 6 2 11 8 11 13 0 5 -5 11 -11 13 -6 2
-11 -4 -11 -13z"/>
<path d="M1750 1161 c0 -15 38 -20 44 -5 4 10 -2 14 -19 14 -14 0 -25 -4 -25
-9z"/>
<path d="M553 1124 c-76 -36 -85 -49 -55 -74 30 -26 72 -14 72 21 0 12 7 19
20 19 12 0 20 7 20 16 0 11 -6 15 -20 11 -11 -3 -20 -2 -20 3 0 9 31 19 80 26
26 4 31 2 20 -5 -8 -6 -23 -11 -32 -11 -10 0 -18 -7 -18 -16 0 -11 5 -14 16
-10 48 18 64 18 64 0 0 -16 2 -17 10 -4 5 8 10 25 10 38 0 36 -77 30 -167 -14z
m-3 -24 c0 -5 -2 -10 -4 -10 -3 0 -8 5 -11 10 -3 6 -1 10 4 10 6 0 11 -4 11
-10z"/>
<path d="M1810 1144 c0 -7 8 -10 19 -7 10 3 22 0 25 -6 11 -17 26 -13 26 7 0
13 -8 17 -35 17 -21 0 -35 -4 -35 -11z"/>
<path d="M299 1134 c-7 -9 -21 -12 -33 -9 -17 5 -18 4 -6 -4 12 -9 11 -11 -7
-11 -13 0 -23 -3 -24 -7 0 -5 -2 -21 -5 -38 -3 -25 -2 -26 5 -9 14 32 60 64
92 64 20 0 33 -8 48 -33 27 -44 42 -112 28 -126 -8 -8 -8 -11 1 -11 16 0 32
34 32 69 0 22 -12 44 -43 78 -45 50 -69 60 -88 37z"/>
<path d="M794 1134 c4 -9 2 -22 -4 -29 -16 -19 14 -40 37 -25 16 10 16 10 -3
5 -14 -4 -21 -1 -21 10 0 8 1 15 1 15 1 0 16 -4 34 -9 20 -6 32 -6 32 0 0 5
-9 9 -21 9 -26 0 -55 26 -36 33 7 3 4 6 -7 6 -13 1 -16 -4 -12 -15z"/>
<path d="M1546 1133 c-6 -14 -5 -15 5 -6 7 7 10 15 7 18 -3 3 -9 -2 -12 -12z"/>
<path d="M2000 1141 c0 -6 8 -11 18 -11 19 0 42 -18 42 -32 0 -5 -11 -1 -24 7
-46 31 -127 -5 -126 -55 1 -8 7 -3 15 12 18 32 77 48 106 29 22 -13 59 -15 59
-3 0 13 -43 49 -67 57 -14 4 -23 2 -23 -4z"/>
<path d="M2096 1143 c17 -12 34 -49 34 -72 0 -18 6 -21 50 -21 50 0 50 0 48
31 -1 19 -11 37 -23 45 -23 15 -128 31 -109 17z"/>
<path d="M840 1136 c0 -9 39 -13 51 -5 10 6 4 9 -18 9 -18 0 -33 -2 -33 -4z"/>
<path d="M1110 1110 c0 -11 4 -20 9 -20 5 0 7 9 4 20 -3 11 -7 20 -9 20 -2 0
-4 -9 -4 -20z"/>
<path d="M1646 1121 c-4 -5 -13 -8 -21 -4 -11 3 -15 -2 -15 -18 0 -19 6 -25
28 -27 55 -5 87 -2 90 7 2 6 10 7 18 4 9 -3 14 2 14 15 0 13 -7 21 -17 21 -10
1 -34 3 -54 7 -22 3 -39 2 -43 -5z m60 -12 c3 -6 0 -17 -8 -25 -13 -13 -16
-13 -28 1 -12 14 -11 18 1 26 19 12 26 11 35 -2z"/>
<path d="M880 1106 c0 -9 30 -14 35 -6 4 6 -3 10 -14 10 -12 0 -21 -2 -21 -4z"/>
<path d="M1180 1101 c0 -5 -16 -15 -35 -22 -19 -7 -35 -16 -35 -20 0 -9 42 -5
59 6 9 5 12 2 9 -11 -2 -11 -11 -18 -21 -18 -9 1 -17 -3 -17 -8 0 -6 -6 -5
-15 2 -26 22 3 -44 31 -71 19 -18 29 -21 42 -13 25 15 52 74 52 112 0 38 -11
41 -33 10 -18 -27 -37 -16 -20 11 12 18 8 31 -9 31 -4 0 -8 -4 -8 -9z"/>
<path d="M160 1080 c-9 -6 -10 -10 -3 -10 6 0 15 5 18 10 8 12 4 12 -15 0z"/>
<path d="M274 1076 c-3 -8 -4 -23 -2 -33 3 -11 6 -6 9 15 6 34 2 42 -7 18z"/>
<path d="M1537 1079 c7 -7 15 -10 18 -7 3 3 -2 9 -12 12 -14 6 -15 5 -6 -5z"/>
<path d="M321 1080 c-1 -3 -4 -21 -6 -40 -4 -28 -2 -31 6 -17 6 10 8 28 6 40
-2 12 -5 20 -6 17z"/>
<path d="M840 1070 c-13 -8 -13 -10 2 -10 9 0 20 5 23 10 8 13 -5 13 -25 0z"/>
<path d="M1957 1073 c-11 -10 -8 -63 3 -63 6 0 10 10 10 23 0 13 5 28 12 35 9
9 9 12 -3 12 -9 0 -19 -3 -22 -7z"/>
<path d="M1720 1044 c0 -8 5 -12 10 -9 6 3 10 10 10 16 0 5 -4 9 -10 9 -5 0
-10 -7 -10 -16z"/>
<path d="M1770 1050 c0 -9 34 -21 68 -24 14 -1 22 4 22 14 0 12 -11 16 -45 16
-25 1 -45 -2 -45 -6z"/>
<path d="M110 1038 c0 -4 9 -8 20 -8 11 0 20 4 20 8 0 4 -9 8 -20 8 -11 0 -20
-4 -20 -8z"/>
<path d="M635 1040 c-13 -6 -15 -9 -5 -9 8 0 22 4 30 9 18 12 2 12 -25 0z"/>
<path d="M1550 1040 c-12 -8 -12 -10 3 -16 9 -3 17 -14 17 -24 0 -10 7 -21 16
-24 28 -11 73 -6 81 8 4 7 15 16 23 20 8 3 1 4 -16 2 -36 -6 -100 10 -110 26
-7 11 14 9 86 -7 14 -3 10 1 -10 9 -42 17 -70 19 -90 6z"/>
<path d="M1383 1029 c9 -5 17 -18 18 -27 0 -11 2 -12 6 -4 6 15 -14 42 -31 42
-6 0 -3 -5 7 -11z"/>
<path d="M275 1010 c3 -5 8 -10 11 -10 2 0 4 5 4 10 0 6 -5 10 -11 10 -5 0 -7
-4 -4 -10z"/>
<path d="M1756 1002 c-3 -5 1 -15 9 -22 16 -14 20 -3 6 19 -5 8 -11 9 -15 3z"/>
<path d="M480 960 c0 -13 -7 -20 -19 -20 -11 0 -23 -5 -27 -11 -8 -14 16 -60
28 -53 15 9 9 -3 -9 -17 -15 -12 -16 -12 -8 1 5 9 0 8 -13 -4 -23 -20 -29 -46
-11 -46 5 0 8 -4 5 -9 -4 -5 -1 -11 6 -13 9 -3 8 -19 -5 -66 -20 -72 -20 -72
-8 -72 5 0 14 21 20 47 7 25 23 59 36 75 23 28 55 113 55 148 0 9 -11 26 -25
38 -24 21 -25 21 -25 2z m24 -19 c3 -5 -2 -15 -12 -22 -15 -12 -16 -12 -5 2 7
9 10 19 6 22 -3 4 -4 7 0 7 3 0 8 -4 11 -9z m-6 -97 c-13 -37 -30 -70 -38 -72
-11 -4 -10 0 3 13 10 10 16 24 13 31 -3 8 -1 14 4 14 18 0 15 45 -5 62 -19 16
-19 16 8 11 18 -4 27 -1 27 8 0 7 2 10 5 7 3 -3 -4 -36 -17 -74z"/>
<path d="M970 971 c-35 -7 -35 -7 -7 -13 15 -3 30 -1 33 3 3 5 15 7 27 5 30
-4 32 -51 2 -51 -11 0 -30 -4 -42 -8 -57 -18 -64 -19 -62 -5 1 7 -1 21 -6 32
-5 12 -3 21 6 27 10 6 11 9 1 9 -16 0 -26 -25 -16 -42 5 -7 9 -20 9 -28 0 -17
38 -22 70 -9 11 4 33 10 48 14 25 5 28 10 25 38 -3 35 -21 41 -88 28z"/>
<path d="M1462 968 c2 -7 -3 -12 -9 -10 -7 1 -13 -2 -13 -8 0 -14 16 -12 29 4
8 10 9 16 1 21 -6 4 -9 1 -8 -7z"/>
<path d="M223 963 c4 -3 1 -13 -6 -22 -11 -14 -10 -14 5 -2 16 12 16 31 1 31
-4 0 -3 -3 0 -7z"/>
<path d="M2005 961 c-3 -6 -1 -11 4 -11 6 0 10 -3 9 -7 -3 -14 13 -53 22 -53
5 0 2 17 -7 38 -18 45 -19 46 -28 33z"/>
<path d="M2140 948 c0 -14 6 -19 23 -16 12 2 22 9 22 17 0 8 -10 15 -22 16
-17 1 -23 -4 -23 -17z"/>
<path d="M608 943 c7 -3 16 -2 19 1 4 3 -2 6 -13 5 -11 0 -14 -3 -6 -6z"/>
<path d="M1586 927 c3 -10 9 -15 12 -12 3 3 0 11 -7 18 -10 9 -11 8 -5 -6z"/>
<path d="M1805 930 c-38 -15 -48 -36 -36 -71 6 -18 11 -54 11 -81 0 -34 4 -47
11 -42 8 4 10 32 7 81 -5 66 -3 75 16 88 11 8 42 15 69 15 30 0 46 4 42 10 -7
12 -91 12 -120 0z"/>
<path d="M1621 896 c-19 -22 -5 -51 34 -72 26 -14 37 -16 46 -7 9 9 6 10 -11
6 -15 -4 -21 -2 -16 5 3 6 1 14 -5 18 -8 5 -9 3 -4 -6 5 -8 3 -11 -4 -9 -7 3
-12 8 -12 12 1 4 1 14 1 22 0 8 7 15 16 15 22 0 11 24 -13 28 -11 2 -25 -4
-32 -12z"/>
<path d="M1576 872 l-19 -27 24 22 c12 12 21 24 18 27 -2 2 -13 -8 -23 -22z"/>
<path d="M580 877 c0 -8 24 -22 57 -32 44 -14 65 -16 92 -8 20 6 43 12 51 14
15 4 30 19 30 30 0 4 -17 -2 -37 -12 -48 -25 -104 -24 -153 1 -31 16 -40 17
-40 7z"/>
<path d="M1550 880 c-9 -6 -10 -10 -3 -10 6 0 15 5 18 10 8 12 4 12 -15 0z"/>
<path d="M1847 853 c-7 -16 -7 -27 0 -34 6 -6 9 -2 9 13 -1 16 5 24 20 26 25
4 42 -27 22 -40 -9 -5 -8 -8 6 -8 14 0 17 5 12 23 -3 12 -6 25 -6 28 0 4 -12
9 -26 12 -20 3 -28 -1 -37 -20z"/>
<path d="M1506 851 c-29 -32 8 -91 58 -91 9 0 16 5 16 12 0 6 -3 9 -6 5 -4 -3
-13 0 -21 8 -17 18 -37 20 -27 3 4 -7 3 -8 -4 -4 -11 7 -6 31 11 54 6 8 6 12
-2 12 -7 0 -9 5 -6 10 10 16 -1 11 -19 -9z m6 -23 c-7 -7 -12 -8 -12 -2 0 14
12 26 19 19 2 -3 -1 -11 -7 -17z"/>
<path d="M1454 829 c-5 -8 -7 -22 -6 -32 2 -10 -2 -24 -8 -32 -15 -18 6 -31
25 -15 16 14 20 57 6 79 -7 11 -10 11 -17 0z"/>
<path d="M2151 794 c0 -11 3 -14 6 -6 3 7 2 16 -1 19 -3 4 -6 -2 -5 -13z"/>
<path d="M907 749 c7 -7 15 -10 18 -7 3 3 -2 9 -12 12 -14 6 -15 5 -6 -5z"/>
<path d="M768 745 c-3 -3 -47 -7 -99 -10 -115 -5 -126 -7 -142 -25 -10 -12 -9
-12 5 -2 11 9 18 10 23 2 3 -5 1 -10 -6 -10 -7 0 -9 -3 -6 -7 4 -4 21 3 37 15
31 24 62 29 58 11 -2 -6 4 -14 12 -16 12 -4 12 -3 2 5 -14 10 35 22 90 22 15
0 30 5 33 10 6 10 2 14 -7 5z"/>
<path d="M881 670 c-2 -84 7 -100 58 -100 54 0 61 13 59 99 l-2 76 -5 -80 -6
-80 -32 -3 c-18 -2 -40 1 -49 6 -16 9 -15 10 3 16 36 12 36 85 0 87 -7 0 -3 4
8 9 16 7 17 9 3 9 -9 1 -21 8 -26 17 -7 12 -10 -6 -11 -56z"/>
<path d="M2141 709 c-1 -32 -16 -46 -56 -52 l-30 -4 31 -2 c38 -1 67 28 61 61
-4 22 -4 21 -6 -3z"/>
<path d="M715 711 c-3 -5 -2 -12 3 -15 5 -3 9 1 9 9 0 17 -3 19 -12 6z"/>
<path d="M812 699 c2 -7 -12 -15 -30 -19 -45 -10 -50 -18 -17 -26 18 -4 30 -2
37 7 8 12 9 11 5 -1 -5 -22 -78 -45 -89 -28 -4 8 -8 8 -8 2 0 -6 -13 -11 -30
-11 -37 0 -38 12 -2 32 27 14 26 15 -18 8 -25 -3 -64 -6 -87 -6 -24 0 -44 -5
-47 -12 -3 -9 11 -12 55 -11 32 0 59 -3 59 -7 0 -5 -22 -7 -49 -5 -27 1 -47
-1 -44 -5 3 -4 54 -6 115 -4 88 4 115 9 136 24 25 19 37 59 20 69 -5 3 -7 0
-6 -7z"/>
<path d="M2030 691 c0 -6 4 -13 10 -16 6 -3 7 1 4 9 -7 18 -14 21 -14 7z"/>
<path d="M1478 679 c-14 -6 -29 -17 -32 -25 -7 -17 27 -54 50 -54 14 0 14 -3
4 -15 -11 -13 -5 -15 46 -14 33 0 77 3 99 8 35 6 40 10 37 31 -1 14 -16 37
-32 53 -26 23 -38 27 -88 26 -31 0 -69 -5 -84 -10z m62 -79 c0 -5 -2 -10 -4
-10 -3 0 -8 5 -11 10 -3 6 -1 10 4 10 6 0 11 -4 11 -10z m105 0 c3 -6 -1 -7
-9 -4 -18 7 -21 14 -7 14 6 0 13 -4 16 -10z"/>
<path d="M961 654 c0 -11 3 -14 6 -6 3 7 2 16 -1 19 -3 4 -6 -2 -5 -13z"/>
<path d="M1106 644 c-5 -14 -4 -15 9 -4 17 14 19 20 6 20 -5 0 -12 -7 -15 -16z"/>
<path d="M1349 643 c-13 -16 -12 -17 4 -4 16 13 21 21 13 21 -2 0 -10 -8 -17
-17z"/>
<path d="M1890 641 c-5 -11 -7 -27 -4 -35 3 -9 2 -16 -2 -16 -5 0 -9 -17 -9
-38 0 -37 1 -37 40 -37 l40 0 5 58 c6 63 -5 100 -22 76 -7 -11 -11 -11 -15 -1
-7 18 -21 15 -33 -7z"/>
<path d="M1138 639 c-23 -13 -23 -35 -2 -43 13 -5 14 -4 6 7 -9 10 -8 17 0 25
19 19 28 14 28 -13 0 -17 6 -25 17 -25 15 0 14 -2 -3 -14 -14 -11 -21 -11 -27
-3 -5 7 -5 1 -1 -13 8 -32 10 -34 29 -26 9 3 15 11 14 18 -1 7 1 21 6 31 5 11
3 23 -5 30 -10 9 -11 9 -6 0 4 -7 3 -13 -3 -13 -5 0 -11 10 -13 22 -4 26 -17
31 -40 17z m52 -89 c0 -5 -5 -10 -11 -10 -5 0 -7 5 -4 10 3 6 8 10 11 10 2 0
4 -4 4 -10z"/>
<path d="M1071 613 c0 -4 4 -17 9 -28 8 -19 9 -19 9 2 1 12 -3 25 -9 28 -5 3
-10 3 -9 -2z"/>
<path d="M1050 601 c0 -6 4 -13 10 -16 6 -3 7 1 4 9 -7 18 -14 21 -14 7z"/>
<path d="M2081 590 c-8 -4 -20 -6 -27 -3 -8 3 -19 -6 -25 -21 -18 -39 11 -78
54 -74 43 4 48 36 10 60 l-28 16 30 -1 c17 -1 31 3 33 8 1 6 -4 10 -10 10 -7
0 -15 3 -18 7 -3 4 -12 3 -19 -2z m-21 -26 c0 -9 -5 -12 -12 -8 -9 5 -9 2 1
-9 8 -10 9 -17 3 -17 -16 0 -23 16 -16 34 8 21 24 21 24 0z m38 -26 c20 -20
14 -38 -12 -38 -27 0 -42 15 -26 25 6 4 8 11 5 16 -9 13 19 11 33 -3z"/>
<path d="M640 548 c-21 -35 -26 -63 -12 -72 5 -3 16 7 25 23 8 15 27 33 41 41
l26 13 -26 14 c-34 17 -31 18 -54 -19z"/>
<path d="M1101 547 c8 -8 22 -12 32 -9 22 6 20 7 -16 16 -24 6 -26 5 -16 -7z"/>
<path d="M1449 544 c-9 -11 -8 -14 4 -14 9 0 19 -4 22 -10 3 -6 -1 -7 -9 -4
-20 8 -21 -10 -1 -26 16 -13 175 -18 194 -5 6 3 11 14 11 23 0 12 -3 13 -11 5
-6 -6 -18 -9 -26 -6 -11 4 -9 8 8 17 12 6 24 17 27 23 5 18 -49 12 -56 -5 -4
-11 -6 -11 -13 -1 -6 10 -11 10 -23 0 -12 -10 -16 -11 -16 -1 0 7 -6 10 -14 7
-7 -3 -30 -2 -49 3 -27 6 -39 4 -48 -6z m148 -40 c-3 -3 -12 -4 -19 -1 -8 3
-5 6 6 6 11 1 17 -2 13 -5z"/>
<path d="M262 530 c0 -14 2 -19 5 -12 2 6 2 18 0 25 -3 6 -5 1 -5 -13z"/>
<path d="M2146 528 c-3 -13 -7 -32 -8 -43 -2 -15 -12 -21 -36 -23 -40 -4 -51
-26 -26 -53 13 -14 25 -18 44 -14 37 9 49 30 49 91 0 56 -15 82 -23 42z m6
-84 c-8 -44 -82 -51 -82 -8 0 12 7 15 30 12 18 -3 35 1 41 9 16 18 17 17 11
-13z"/>
<path d="M224 498 l-19 -23 23 19 c21 18 27 26 19 26 -2 0 -12 -10 -23 -22z"/>
<path d="M761 502 c-13 -9 -38 -29 -55 -44 -26 -22 -35 -25 -46 -15 -12 10
-12 9 0 -6 7 -10 26 -25 41 -32 25 -13 29 -12 53 10 14 13 26 29 26 35 0 5 7
10 15 10 19 0 20 34 2 49 -10 8 -19 6 -36 -7z"/>
<path d="M273 493 c9 -2 23 -2 30 0 6 3 -1 5 -18 5 -16 0 -22 -2 -12 -5z"/>
<path d="M331 486 c-1 -12 -6 -16 -17 -12 -14 5 -15 4 -4 -9 16 -19 34 -5 27
21 -5 19 -5 19 -6 0z"/>
<path d="M976 475 c-31 -32 -10 -55 51 -55 47 0 65 19 46 49 -14 22 -76 26
-97 6z"/>
<path d="M1992 469 c-13 -5 -20 -13 -17 -19 8 -12 25 -13 45 0 23 14 0 30 -28
19z"/>
<path d="M175 460 c-3 -5 -1 -10 4 -10 6 0 11 5 11 10 0 6 -2 10 -4 10 -3 0
-8 -4 -11 -10z"/>
<path d="M208 463 c7 -3 16 -2 19 1 4 3 -2 6 -13 5 -11 0 -14 -3 -6 -6z"/>
<path d="M846 462 c-3 -6 -1 -14 5 -17 15 -10 25 3 12 16 -7 7 -13 7 -17 1z"/>
<path d="M293 453 c4 -3 -1 -16 -10 -27 -18 -21 -18 -21 4 -2 20 16 23 36 6
36 -4 0 -3 -3 0 -7z"/>
<path d="M1300 452 c0 -4 10 -13 23 -21 22 -14 22 -14 3 8 -20 22 -26 25 -26
13z"/>
<path d="M180 425 c-7 -9 -8 -15 -2 -15 5 0 12 7 16 15 3 8 4 15 2 15 -2 0 -9
-7 -16 -15z"/>
<path d="M205 420 c-3 -5 1 -10 10 -10 9 0 13 5 10 10 -3 6 -8 10 -10 10 -2 0
-7 -4 -10 -10z"/>
<path d="M1280 426 c0 -4 7 -14 15 -22 8 -9 15 -11 15 -6 0 5 -7 15 -15 22 -8
7 -15 9 -15 6z"/>
<path d="M1483 420 c-49 -20 -17 -41 115 -75 66 -17 76 -18 99 -5 45 26 38 38
-34 60 -82 26 -150 33 -180 20z"/>
<path d="M250 393 c0 -21 3 -24 9 -14 5 8 7 20 4 28 -8 21 -13 15 -13 -14z"/>
<path d="M1045 400 c4 -6 11 -8 16 -5 14 9 11 15 -7 15 -8 0 -12 -5 -9 -10z"/>
<path d="M755 391 c-7 -12 12 -24 25 -16 11 7 4 25 -10 25 -5 0 -11 -4 -15 -9z"/>
<path d="M940 380 c0 -5 5 -10 11 -10 5 0 7 5 4 10 -3 6 -8 10 -11 10 -2 0 -4
-4 -4 -10z"/>
<path d="M995 365 c-3 -8 -7 -23 -10 -32 -5 -15 -3 -15 15 2 21 19 27 45 10
45 -6 0 -13 -7 -15 -15z"/>
<path d="M1885 348 c-8 -26 -15 -33 -35 -32 -14 1 -33 4 -42 9 -10 4 -18 3
-18 -2 0 -5 17 -15 38 -21 35 -11 38 -10 61 15 18 22 22 23 17 8 -6 -15 -4
-17 4 -9 9 9 8 18 -2 38 l-14 26 -9 -32z"/>
<path d="M2032 360 c-56 -25 -58 -59 -6 -89 32 -19 41 -20 71 -10 19 6 36 16
38 23 13 37 8 50 -26 71 -36 23 -36 23 -77 5z m98 -65 c0 -2 -10 -9 -22 -15
-22 -11 -22 -10 -4 4 21 17 26 19 26 11z"/>
<path d="M1040 361 c0 -6 5 -13 10 -16 6 -3 10 1 10 9 0 9 -4 16 -10 16 -5 0
-10 -4 -10 -9z"/>
<path d="M1084 356 c3 -22 22 -40 30 -28 3 5 -3 17 -13 27 -17 15 -19 15 -17
1z"/>
<path d="M1780 355 c0 -8 2 -15 4 -15 2 0 6 7 10 15 3 8 1 15 -4 15 -6 0 -10
-7 -10 -15z"/>
<path d="M657 339 c7 -7 15 -10 18 -7 3 3 -2 9 -12 12 -14 6 -15 5 -6 -5z"/>
<path d="M1233 330 c-1 -11 2 -22 8 -25 5 -4 9 5 9 19 0 30 -15 35 -17 6z"/>
<path d="M1462 339 c5 -14 152 -62 188 -61 32 1 85 21 77 28 -3 3 -21 1 -40
-5 -29 -10 -48 -8 -112 9 -43 12 -87 26 -98 31 -15 8 -18 8 -15 -2z"/>
<path d="M775 330 c-3 -5 -1 -10 4 -10 6 0 11 5 11 10 0 6 -2 10 -4 10 -3 0
-8 -4 -11 -10z"/>
<path d="M1262 315 c0 -16 2 -22 5 -12 2 9 2 23 0 30 -3 6 -5 -1 -5 -18z"/>
<path d="M272 323 c-14 -3 -30 -19 -42 -43 -23 -45 -24 -50 -10 -50 6 0 10 9
10 20 0 11 5 20 10 20 6 0 8 -12 4 -27 -4 -22 -3 -25 5 -13 6 8 11 23 11 33 0
24 21 22 27 -3 3 -11 9 -20 14 -20 5 0 6 7 3 15 -4 8 -1 15 5 15 6 0 11 -8 12
-17 0 -15 2 -15 9 2 5 11 9 14 9 8 1 -18 21 -16 21 1 0 8 6 16 13 19 10 4 12
-5 10 -32 -1 -23 1 -31 6 -22 5 7 6 22 3 34 -4 14 -2 18 7 12 10 -6 11 -3 2
14 -20 37 -59 47 -129 34z"/>
<path d="M1010 320 c0 -5 5 -10 11 -10 5 0 8 -4 4 -9 -3 -5 -1 -12 3 -15 5 -3
14 6 20 19 11 23 10 25 -13 25 -14 0 -25 -4 -25 -10z"/>
<path d="M644 298 c-4 -6 -3 -8 4 -4 5 3 12 1 14 -6 3 -8 7 -6 11 5 7 20 -17
24 -29 5z"/>
<path d="M1080 300 c0 -5 4 -10 9 -10 6 0 13 5 16 10 3 6 -1 10 -9 10 -9 0
-16 -4 -16 -10z"/>
<path d="M686 292 c-3 -6 0 -12 6 -14 8 -3 0 -12 -17 -21 -16 -9 -25 -16 -20
-16 6 -1 17 4 25 9 11 7 17 5 22 -8 5 -13 7 -11 7 8 1 30 -14 57 -23 42z"/>
<path d="M767 287 c-9 -24 8 -40 23 -22 11 13 10 15 -6 9 -18 -5 -18 -5 0 10
16 13 17 16 4 16 -9 0 -18 -6 -21 -13z"/>
<path d="M946 258 c-16 -61 1 -82 72 -94 27 -4 49 -1 72 11 31 16 32 19 26 58
-4 23 -9 43 -11 46 -10 9 -18 -10 -19 -41 -1 -30 -4 -33 -31 -33 -25 0 -31 4
-33 26 -2 15 -11 29 -20 32 -9 3 -24 8 -33 11 -12 5 -18 0 -23 -16z"/>
<path d="M1424 270 c49 -9 90 -52 83 -87 -3 -15 0 -23 10 -23 33 0 28 66 -9
100 -16 15 -34 20 -72 19 l-51 -1 39 -8z"/>
<path d="M1926 263 c-6 -14 -5 -15 5 -6 7 7 10 15 7 18 -3 3 -9 -2 -12 -12z"/>
<path d="M1982 259 c2 -8 26 -24 52 -37 l47 -22 34 26 c19 15 35 31 35 36 0 5
-14 -2 -31 -16 -38 -32 -42 -32 -97 0 -27 16 -43 21 -40 13z"/>
<path d="M806 251 c-3 -5 2 -8 12 -7 9 0 16 -5 14 -12 -1 -8 2 -11 7 -7 6 3 8
12 4 20 -6 17 -29 20 -37 6z"/>
<path d="M1035 240 c3 -5 8 -10 11 -10 2 0 4 5 4 10 0 6 -5 10 -11 10 -5 0 -7
-4 -4 -10z"/>
<path d="M1383 234 c-3 -8 -1 -20 5 -26 8 -8 9 -5 5 10 -4 17 0 21 29 25 l33
4 -33 1 c-21 1 -35 -3 -39 -14z"/>
<path d="M337 225 c-4 -8 -3 -16 1 -19 4 -3 9 4 9 15 2 23 -3 25 -10 4z"/>
<path d="M1833 233 c9 -2 25 -2 35 0 9 3 1 5 -18 5 -19 0 -27 -2 -17 -5z"/>
<path d="M1410 217 c15 -20 62 -20 66 1 1 7 0 8 -3 2 -7 -14 -46 -13 -63 3
-12 10 -12 9 0 -6z"/>
<path d="M1927 203 c-19 -24 -18 -25 9 -64 l27 -40 19 28 c26 41 23 70 -9 87
-26 13 -29 12 -46 -11z"/>
<path d="M712 200 c0 -14 2 -19 5 -12 2 6 2 18 0 25 -3 6 -5 1 -5 -13z"/>
<path d="M854 205 c-10 -8 -14 -14 -9 -15 15 0 40 18 34 24 -3 3 -14 -1 -25
-9z"/>
<path d="M1477 193 c-4 -3 -24 -6 -44 -5 -29 0 -33 -2 -18 -8 22 -9 64 -3 80
11 5 6 5 9 -1 9 -6 0 -14 -3 -17 -7z"/>
<path d="M248 163 c6 -2 18 -2 25 0 6 3 1 5 -13 5 -14 0 -19 -2 -12 -5z"/>
<path d="M348 163 c6 -2 18 -2 25 0 6 3 1 5 -13 5 -14 0 -19 -2 -12 -5z"/>
<path d="M530 146 c0 -2 7 -7 16 -10 8 -3 12 -2 9 4 -6 10 -25 14 -25 6z"/>
</g>
</svg>
